{"title":"Moondraam Ullaga Por (2016) 720p Webrip x264 -DDR","uid":15787835,"size":744972350,"categoryP":"video","categoryS":"hd___movies","magnet":"?xt=urn:btih:9a8aedca00edabbb0f77c52b464ecee5850db0ed&amp;dn=Moondraam+Ullaga+Por+%282016%29+720p+Webrip+x264+-DDR&amp;tr=udp%3A%2F%2Ftracker.leechers-paradise.org%3A6969&amp;tr=udp%3A%2F%2Fzer0day.ch%3A1337&amp;tr=udp%3A%2F%2Fopen.demonii.com%3A1337&amp;tr=udp%3A%2F%2Ftracker.coppersurfer.tk%3A6969&amp;tr=udp%3A%2F%2Fexodus.desync.com%3A6969","seeders":8,"leechers":16,"uploader":"SaM","files":3,"time":1473346886,"description":"Moondraam Ullaga Por\r\n\r\n720p Web Rip x264\r\n\r\nTamil / AAC Stereo Audio\r\n \nhttp://extraimago.com/image/wmys \nhttp://extraimago.com/image/wmyn \nhttp://extraimago.com/image/wmyj \nhttp://extraimago.com/image/wmyT \nhttp://extraimago.com/image/wmyN \nhttp://extraimago.com/image/wmy2 \nhttp://extraimago.com/image/wmyw \nhttp://extraimago.com/image/wmya \nhttp://extraimago.com/image/wmy8 \nhttp://extraimago.com/image/wmqf \nhttp://extraimago.com/image/wmqW \nhttp://extraimago.com/image/wmqA \nhttp://extraimago.com/image/wmqv \nhttp://extraimago.com/image/wmqu\r\n\r\nSpecs:\r\nSource: WEB DL @RbT\r\n\r\nFormat : Matroska\r\nFile size : 699 MiB\r\nDuration : 1 h 39 min\r\nOverall bit rate : 984 kb/s\r\n\r\n\r\nVideo\r\nFormat : AVC\r\nFormat/Info : Advanced Video Codec\r\nFormat profile :   \r\nFormat settings, CABAC : Yes\r\nFormat settings, ReFrames : 12 frames\r\nCodec ID : V_MPEG4/ISO/AVC\r\nDuration : 1 h 39 min\r\nBit rate : 854 kb/s\r\nWidth : 1 280 pixels\r\nHeight : 534 pixels\r\nDisplay aspect ratio : 2.40:1\r\nFrame rate mode : Constant\r\nFrame rate : 25.000 FPS\r\nColor space : YUV\r\nChroma subsampling : 4:2:0\r\nBit depth : 8 bits\r\nScan type : Progressive\r\nBits/(Pixel*Frame) : 0.050\r\nStream size : 606 MiB (87%)\r\nDefault : Yes\r\nForced : No\r\nColor range : Limited\r\nColor primaries : BT.709\r\n\r\n\r\nAudio #1\r\nFormat : AAC\r\nFormat/Info : Advanced Audio Codec\r\nFormat profile : LC\r\nCodec ID : A_AAC\r\nDuration : 1 h 39 min\r\nBit rate : 128 kb/s\r\nChannel(s) : 2 channels\r\nChannel positions : Front: L R\r\nSampling rate : 48.0 kHz\r\nFrame rate : 46.875 FPS (1024 spf)\r\nCompression mode : Lossy\r\nDelay relative to video : 13 ms\r\nStream size : 90.9 MiB (13%)\r\nDefault : Yes\r\nForced : No\r\n\r\n\r\n\r\nSAMPLE Included","torrent":{"xt":"urn:btih:9a8aedca00edabbb0f77c52b464ecee5850db0ed","amp;dn":"Moondraam+Ullaga+Por+%282016%29+720p+Webrip+x264+-DDR","amp;tr":["udp%3A%2F%2Ftracker.leechers-paradise.org%3A6969","udp%3A%2F%2Fzer0day.ch%3A1337","udp%3A%2F%2Fopen.demonii.com%3A1337","udp%3A%2F%2Ftracker.coppersurfer.tk%3A6969","udp%3A%2F%2Fexodus.desync.com%3A6969"],"infoHash":"9a8aedca00edabbb0f77c52b464ecee5850db0ed","infoHashBuffer":{"type":"Buffer","data":[154,138,237,202,0,237,171,187,15,119,197,43,70,78,206,229,133,13,176,237]},"announce":[],"urlList":[]}}